name rise49.25peak52.1432fall72.8391.mot
datacolumns 19
datarows 26
range 21.97991600000000 22.02158400000000
endheader
time	ground_force1_vx	ground_force1_vy	ground_force1_vz	ground_force1_px	ground_force1_py	ground_force1_pz	ground_force2_vx	ground_force2_vy	ground_force2_vz	ground_force2_px	ground_force2_py	ground_force2_pz	ground_torque1_x	ground_torque1_y	ground_torque1_z	ground_torque2_x	ground_torque2_y	ground_torque2_z	
21.97991600000000	-43.48210100000000	811.54724699999997	57.47943300000000	0.12953200000000	0.00000000000000	0.12413700000000	-2.43634500000000	6.96438200000000	2.31580800000000	0.00000000000000	0.00000000000000	0.00000000000000	0.00000000000000	24.60881300000000	0.00000000000000	0.00000000000000	0.76774000000000	0.00000000000000	
21.98157800000000	-43.89568000000000	810.25573999999995	57.40251400000000	0.12883600000000	0.00000000000000	0.12413600000000	-3.50248800000000	10.89109600000000	3.42621900000000	0.00000000000000	0.00000000000000	0.00000000000000	0.00000000000000	24.56434200000000	0.00000000000000	0.00000000000000	1.14654500000000	0.00000000000000	
21.98324800000000	-44.32531700000000	808.87148300000001	57.31050600000000	0.12814600000000	0.00000000000000	0.12413100000000	-4.66922900000000	15.42832300000000	4.66673300000000	0.00000000000000	0.00000000000000	0.00000000000000	0.00000000000000	24.52125400000000	0.00000000000000	0.00000000000000	1.57223500000000	0.00000000000000	
21.98491700000000	-44.77142800000000	807.39306699999997	57.20316100000000	0.12746200000000	0.00000000000000	0.12412200000000	-5.89862900000000	20.49827400000000	6.00402300000000	0.00000000000000	0.00000000000000	0.00000000000000	0.00000000000000	24.47962100000000	0.00000000000000	0.00000000000000	2.03403800000000	0.00000000000000	
21.98657800000000	-45.23437900000000	805.81907100000001	57.08023600000000	0.12678300000000	0.00000000000000	0.12410900000000	-7.14719600000000	25.99910900000000	7.39842900000000	0.36032400000000	0.00000000000000	-0.04560500000000	0.00000000000000	24.43950900000000	0.00000000000000	0.00000000000000	4.85885500000000	0.00000000000000	
21.98824700000000	-45.71449300000000	804.14806399999998	56.94149700000000	0.12610800000000	0.00000000000000	0.12409200000000	-8.36908300000000	31.81334000000000	8.80692800000000	0.36430200000000	0.00000000000000	-0.04623100000000	0.00000000000000	24.40096700000000	0.00000000000000	0.00000000000000	5.83424700000000	0.00000000000000	
21.98991400000000	-46.21204200000000	802.37859700000001	56.78672000000000	0.12543800000000	0.00000000000000	0.12407000000000	-9.51957400000000	37.81777800000000	10.18644300000000	0.36796700000000	0.00000000000000	-0.04681600000000	0.00000000000000	24.36403700000000	0.00000000000000	0.00000000000000	6.80371000000000	0.00000000000000	
21.99157700000000	-46.72724200000000	800.50919899999997	56.61568700000000	0.12477200000000	0.00000000000000	0.12404400000000	-10.55837900000000	43.89360200000000	11.49706300000000	0.37134900000000	0.00000000000000	-0.04736500000000	0.00000000000000	24.32874300000000	0.00000000000000	0.00000000000000	7.73981300000000	0.00000000000000	
21.99324400000000	-47.26025400000000	798.53837699999997	56.42819000000000	0.12410900000000	0.00000000000000	0.12401300000000	-11.45230900000000	49.93523400000000	12.70473800000000	0.37447400000000	0.00000000000000	-0.04788400000000	0.00000000000000	24.29510100000000	0.00000000000000	0.00000000000000	8.61852700000000	0.00000000000000	
21.99491700000000	-47.81117800000000	796.46460999999999	56.22403200000000	0.12344900000000	0.00000000000000	0.12397800000000	-12.17707500000000	55.85707200000000	13.78319600000000	0.37736400000000	0.00000000000000	-0.04837900000000	0.00000000000000	24.26311200000000	0.00000000000000	0.00000000000000	9.42065600000000	0.00000000000000	
21.99658000000000	-48.38005100000000	794.28634499999998	56.00302400000000	0.12279000000000	0.00000000000000	0.12393800000000	-12.71812400000000	61.59763700000000	14.71495000000000	0.38003700000000	0.00000000000000	-0.04885400000000	0.00000000000000	24.23276400000000	0.00000000000000	0.00000000000000	10.13267300000000	0.00000000000000	
21.99824800000000	-48.96684200000000	792.00199799999996	55.76498700000000	0.12213300000000	0.00000000000000	0.12389400000000	-13.07053800000000	67.12109100000001	15.49144100000000	0.38250900000000	0.00000000000000	-0.04931200000000	0.00000000000000	24.20403200000000	0.00000000000000	0.00000000000000	10.74696100000000	0.00000000000000	
21.99991600000000	-49.57145200000000	789.60994900000003	55.50975400000000	0.12147700000000	0.00000000000000	0.12384500000000	-13.23817900000000	72.41640099999999	16.11241900000000	0.38479600000000	0.00000000000000	-0.04975500000000	0.00000000000000	24.17687800000000	0.00000000000000	0.00000000000000	11.26153500000000	0.00000000000000	
22.00158600000000	-50.19370800000000	787.10854099999995	55.23717100000000	0.12082100000000	0.00000000000000	0.12379200000000	-13.23223500000000	77.49459400000001	16.58475300000000	0.38691000000000	0.00000000000000	-0.05018700000000	0.00000000000000	24.15125000000000	0.00000000000000	0.00000000000000	11.67934100000000	0.00000000000000	
22.00325100000000	-50.83336000000000	784.49608000000001	54.94709200000000	0.12016400000000	0.00000000000000	0.12373400000000	-13.06942600000000	82.38467600000000	16.92085700000000	0.38886300000000	0.00000000000000	-0.05060800000000	0.00000000000000	24.12708200000000	0.00000000000000	0.00000000000000	12.00726900000000	0.00000000000000	
22.00491100000000	-51.49008300000000	781.77083100000004	54.63938900000000	0.11950500000000	0.00000000000000	0.12367200000000	-12.77005000000000	87.12877400000001	17.13693000000000	0.39066400000000	0.00000000000000	-0.05102000000000	0.00000000000000	24.10429600000000	0.00000000000000	0.00000000000000	12.25500800000000	0.00000000000000	
22.00658500000000	-52.16346700000000	778.93102199999998	54.31394300000000	0.11884500000000	0.00000000000000	0.12360500000000	-12.35607700000000	91.77703800000000	17.25119500000000	0.39232300000000	0.00000000000000	-0.05142600000000	0.00000000000000	24.08279900000000	0.00000000000000	0.00000000000000	12.43387000000000	0.00000000000000	
22.00824900000000	-52.85302000000000	775.97484099999997	53.97065400000000	0.11818300000000	0.00000000000000	0.12353300000000	-11.84942100000000	96.38276500000001	17.28227200000000	0.39384900000000	0.00000000000000	-0.05182500000000	0.00000000000000	24.06248500000000	0.00000000000000	0.00000000000000	12.55568400000000	0.00000000000000	
22.00991400000000	-53.55816600000000	772.90043900000001	53.60943300000000	0.11751700000000	0.00000000000000	0.12345800000000	-11.27051300000000	100.99809600000000	17.24779800000000	0.39525000000000	0.00000000000000	-0.05221900000000	0.00000000000000	24.04323400000000	0.00000000000000	0.00000000000000	12.63183800000000	0.00000000000000	
22.01158600000000	-54.27823800000000	769.70592799999997	53.23021000000000	0.11684700000000	0.00000000000000	0.12337700000000	-10.63722200000000	105.67051300000000	17.16336000000000	0.39653200000000	0.00000000000000	-0.05260800000000	0.00000000000000	24.02491300000000	0.00000000000000	0.00000000000000	12.67252100000000	0.00000000000000	
22.01325200000000	-55.01248200000000	766.38938800000005	52.83293200000000	0.11617300000000	0.00000000000000	0.12329300000000	-9.96415500000000	110.44028000000000	17.04175800000000	0.39770400000000	0.00000000000000	-0.05299400000000	0.00000000000000	24.00737500000000	0.00000000000000	0.00000000000000	12.68618800000000	0.00000000000000	
22.01491100000000	-55.76005000000000	762.94886499999996	52.41756200000000	0.11549400000000	0.00000000000000	0.12320400000000	-9.26231800000000	115.33885500000000	16.89261900000000	0.39877000000000	0.00000000000000	-0.05337500000000	0.00000000000000	23.99046000000000	0.00000000000000	0.00000000000000	12.67925800000000	0.00000000000000	
22.01658500000000	-56.52000400000000	759.38237700000002	51.98408500000000	0.11480900000000	0.00000000000000	0.12311000000000	-8.53910000000000	120.38820600000000	16.72230100000000	0.39973700000000	0.00000000000000	-0.05375400000000	0.00000000000000	23.97399300000000	0.00000000000000	0.00000000000000	12.65601600000000	0.00000000000000	
22.01826000000000	-57.29131200000000	755.68791599999997	51.53250400000000	0.11411800000000	0.00000000000000	0.12301300000000	-7.79852600000000	125.60093800000000	16.53406900000000	0.40061100000000	0.00000000000000	-0.05413000000000	0.00000000000000	23.95778800000000	0.00000000000000	0.00000000000000	12.61869800000000	0.00000000000000	
22.01991800000000	-58.07284500000000	751.86345400000005	51.06284300000000	0.11342100000000	0.00000000000000	0.12291100000000	-7.04170800000000	130.98105500000000	16.32845800000000	0.40139600000000	0.00000000000000	-0.05450300000000	0.00000000000000	23.94164400000000	0.00000000000000	0.00000000000000	12.56771700000000	0.00000000000000	
22.02158400000000	-58.86338500000000	747.90694599999995	50.57514800000000	0.11271600000000	0.00000000000000	0.12280500000000	-6.26742700000000	136.52519899999999	16.10377600000000	0.40209800000000	0.00000000000000	-0.05487400000000	0.00000000000000	23.92534800000000	0.00000000000000	0.00000000000000	12.50198800000000	0.00000000000000	
